<?xml version="1.0" standalone="no"?>
<!DOCTYPE svg PUBLIC "-//W3C//DTD SVG 20010904//EN"
 "http://www.w3.org/TR/2001/REC-SVG-20010904/DTD/svg10.dtd">
<svg version="1.0" xmlns="http://www.w3.org/2000/svg"
 width="40.000000pt" height="40.000000pt" viewBox="0 0 40.000000 40.000000"
 preserveAspectRatio="xMidYMid meet">

<g transform="translate(0.000000,40.000000) scale(0.100000,-0.100000)"
fill="#000000" stroke="none">
<path d="M15 377 c-3 -7 -4 -91 -3 -187 l3 -175 93 -3 92 -3 0 76 0 75 -30 0
c-27 0 -30 3 -30 30 0 27 3 30 30 30 29 0 30 2 30 43 0 57 21 76 86 79 46 3
49 1 52 -23 3 -22 -2 -26 -35 -35 -31 -7 -39 -14 -41 -36 -3 -26 -1 -28 32
-28 33 0 36 -2 36 -30 0 -28 -3 -30 -35 -30 l-35 0 0 -75 0 -76 63 3 62 3 0
185 0 185 -183 3 c-143 2 -184 0 -187 -11z"/>
</g>
</svg>
