<?xml version="1.0" standalone="no"?>
<!DOCTYPE svg PUBLIC "-//W3C//DTD SVG 20010904//EN"
 "http://www.w3.org/TR/2001/REC-SVG-20010904/DTD/svg10.dtd">
<svg version="1.0" xmlns="http://www.w3.org/2000/svg"
 width="40.000000pt" height="40.000000pt" viewBox="0 0 40.000000 40.000000"
 preserveAspectRatio="xMidYMid meet">

<g transform="translate(0.000000,40.000000) scale(0.100000,-0.100000)"
fill="#000000" stroke="none">
<path d="M39 361 c-29 -29 -29 -31 -29 -141 0 -81 3 -109 12 -104 6 4 16 0 22
-8 8 -11 10 10 8 83 -4 98 -4 99 26 129 29 28 35 30 112 30 133 0 149 -17 150
-152 0 -95 0 -96 -31 -122 -17 -14 -40 -26 -52 -27 -12 0 -17 -3 -10 -5 7 -3
9 -12 6 -20 -10 -26 71 -18 104 10 l28 24 -2 144 c-3 140 -3 144 -28 166 -24
20 -36 22 -156 22 l-131 0 -29 -29z"/>
<path d="M102 298 c-7 -7 -12 -42 -12 -89 0 -82 6 -109 22 -109 6 0 4 7 -3 16
-13 15 -11 16 21 10 19 -5 52 -9 73 -9 37 -2 48 -11 25 -20 -7 -3 1 -6 19 -6
50 -1 63 20 63 105 0 111 -3 114 -108 114 -55 0 -92 -4 -100 -12z m185 -14 c9
-23 -11 -38 -26 -20 -13 16 -7 36 10 36 5 0 12 -7 16 -16z m-41 -27 c20 -17
27 -33 27 -57 0 -24 -7 -40 -27 -57 -35 -30 -71 -29 -101 2 -72 71 24 178 101
112z"/>
<path d="M169 231 c-21 -17 -22 -22 -11 -45 10 -23 18 -27 45 -24 27 3 32 7
35 33 3 19 -2 33 -14 42 -23 17 -27 17 -55 -6z"/>
</g>
</svg>
