<?xml version="1.0" standalone="no"?>
<!DOCTYPE svg PUBLIC "-//W3C//DTD SVG 20010904//EN"
 "http://www.w3.org/TR/2001/REC-SVG-20010904/DTD/svg10.dtd">
<svg version="1.0" xmlns="http://www.w3.org/2000/svg"
 width="40.000000pt" height="40.000000pt" viewBox="0 0 40.000000 40.000000"
 preserveAspectRatio="xMidYMid meet">

<g transform="translate(0.000000,40.000000) scale(0.100000,-0.100000)"
fill="#000000" stroke="none">
<path d="M220 232 c0 -138 -5 -152 -50 -152 -60 0 -79 79 -25 100 32 12 35 50
4 50 -44 0 -89 -49 -89 -99 0 -89 113 -134 181 -73 29 26 32 34 37 106 4 62 8
76 19 72 8 -4 26 -9 39 -12 21 -5 24 -3 24 22 0 23 -7 32 -33 44 -17 8 -38 27
-45 43 -9 18 -21 27 -38 27 l-24 0 0 -128z"/>
</g>
</svg>
