<?xml version="1.0" standalone="no"?>
<!DOCTYPE svg PUBLIC "-//W3C//DTD SVG 20010904//EN"
 "http://www.w3.org/TR/2001/REC-SVG-20010904/DTD/svg10.dtd">
<svg version="1.0" xmlns="http://www.w3.org/2000/svg"
 width="148.000000pt" height="148.000000pt" viewBox="0 0 148.000000 148.000000"
 preserveAspectRatio="xMidYMid meet">
<metadata>
Created by potrace 1.14, written by Peter Selinger 2001-2017
</metadata>
<g transform="translate(0.000000,148.000000) scale(0.100000,-0.100000)"
fill="#000000" stroke="none">
<path d="M0 945 l0 -536 21 11 c40 22 135 130 189 215 149 234 172 266 224
305 29 22 68 45 87 51 19 7 60 31 92 55 31 23 81 54 111 68 273 129 582 -29
637 -326 33 -179 -60 -357 -228 -440 -64 -31 -73 -33 -178 -33 -98 0 -116 3
-166 26 -152 72 -228 223 -185 371 26 91 92 152 211 193 17 6 13 11 -25 28
-34 16 -66 21 -130 21 -151 1 -208 -40 -359 -262 -126 -186 -176 -242 -245
-278 l-56 -29 0 -192 0 -193 740 0 740 0 0 740 0 740 -740 0 -740 0 0 -535z"/>
<path d="M833 1135 c-33 -7 -74 -21 -90 -30 -15 -9 -19 -13 -8 -10 130 42 226
43 324 6 116 -44 214 -150 253 -273 63 -203 -60 -415 -276 -473 -289 -78 -520
238 -323 443 52 54 101 75 168 70 56 -4 57 -4 43 17 -17 26 -55 55 -114 86
-39 20 -59 24 -145 24 -87 0 -107 -3 -155 -26 -79 -38 -138 -103 -236 -262
-48 -77 -101 -156 -118 -176 -53 -60 -61 -79 -12 -26 26 28 91 115 145 195
106 156 152 206 218 240 88 45 219 42 316 -7 57 -28 57 -29 -30 -52 -106 -29
-183 -132 -183 -246 0 -87 25 -150 79 -205 111 -111 292 -137 444 -66 68 33
149 117 185 193 24 52 27 70 27 163 0 97 -2 110 -32 173 -61 128 -189 224
-329 247 -71 12 -73 12 -151 -5z"/>
<path d="M765 1087 c-38 -13 -88 -33 -109 -44 l-39 -20 73 -6 c89 -7 161 -40
225 -102 57 -56 60 -79 8 -68 -86 18 -144 1 -199 -59 -50 -52 -67 -96 -67
-163 1 -98 58 -189 150 -235 41 -21 62 -25 143 -25 85 0 101 3 153 29 79 40
158 125 186 201 34 90 28 197 -17 287 -42 86 -109 153 -192 192 -89 43 -211
47 -315 13z"/>
</g>
</svg>
